<svg width="46" height="46" viewBox="0 0 46 46" fill="none" xmlns="http://www.w3.org/2000/svg">
<g clip-path="url(#clip0_1457_1118)">
<path d="M22.749 35C15.994 35 10.499 29.505 10.499 22.75C10.499 15.995 15.994 10.5 22.749 10.5C29.504 10.5 34.999 15.995 34.999 22.75C34.999 29.505 29.504 35 22.749 35ZM22.749 14.5C18.2 14.5 14.499 18.201 14.499 22.75C14.499 27.299 18.2 31 22.749 31C27.298 31 30.999 27.299 30.999 22.75C30.999 18.201 27.298 14.5 22.749 14.5Z" fill="url(#paint0_linear_1457_1118)"/>
<path d="M22.999 7C22.17 7 21.499 6.328 21.499 5.5V1.5C21.499 0.672 22.17 0 22.999 0C23.827 0 24.499 0.672 24.499 1.5V5.5C24.499 6.328 23.827 7 22.999 7Z" fill="url(#paint1_linear_1457_1118)"/>
<path d="M14.342 9.18598C13.823 9.18598 13.32 8.91698 13.042 8.43598L11.042 4.97298C10.627 4.25598 10.873 3.33798 11.591 2.92398C12.308 2.50898 13.226 2.75498 13.64 3.47298L15.64 6.93598C16.055 7.65298 15.809 8.57098 15.091 8.98498C14.855 9.12098 14.597 9.18598 14.342 9.18598Z" fill="url(#paint2_linear_1457_1118)"/>
<path d="M7.93398 15.408C7.67998 15.408 7.42198 15.344 7.18498 15.207L3.72098 13.207C3.00398 12.793 2.75798 11.876 3.17198 11.158C3.58598 10.44 4.50298 10.194 5.22098 10.609L8.68498 12.609C9.40198 13.023 9.64798 13.94 9.23398 14.658C8.95698 15.14 8.45298 15.408 7.93398 15.408Z" fill="url(#paint3_linear_1457_1118)"/>
<path d="M5.5 24H1.5C0.671 24 0 23.328 0 22.5C0 21.672 0.671 21 1.5 21H5.5C6.329 21 7 21.672 7 22.5C7 23.328 6.329 24 5.5 24Z" fill="url(#paint4_linear_1457_1118)"/>
<path d="M4.22398 34.658C3.70498 34.658 3.20198 34.389 2.92398 33.908C2.50898 33.191 2.75498 32.273 3.47298 31.859L6.93598 29.859C7.65398 29.445 8.57098 29.691 8.98498 30.408C9.39998 31.125 9.15398 32.043 8.43598 32.457L4.97298 34.457C4.73698 34.594 4.47898 34.658 4.22398 34.658Z" fill="url(#paint5_linear_1457_1118)"/>
<path d="M11.908 42.527C11.654 42.527 11.396 42.463 11.159 42.326C10.442 41.912 10.196 40.995 10.61 40.277L12.609 36.813C13.024 36.096 13.941 35.849 14.658 36.264C15.375 36.678 15.621 37.595 15.207 38.313L13.208 41.777C12.931 42.259 12.426 42.527 11.908 42.527Z" fill="url(#paint6_linear_1457_1118)"/>
<path d="M22.5 45.498C21.671 45.498 21 44.826 21 43.998V39.999C21 39.171 21.671 38.499 22.5 38.499C23.329 38.499 24 39.171 24 39.999V43.998C24 44.826 23.329 45.498 22.5 45.498Z" fill="url(#paint7_linear_1457_1118)"/>
<path d="M33.159 42.775C32.641 42.775 32.138 42.506 31.859 42.025L29.859 38.562C29.444 37.845 29.69 36.927 30.408 36.513C31.125 36.098 32.043 36.345 32.457 37.062L34.457 40.525C34.872 41.242 34.626 42.16 33.908 42.574C33.673 42.711 33.414 42.775 33.159 42.775Z" fill="url(#paint8_linear_1457_1118)"/>
<path d="M41.024 35.089C40.77 35.089 40.512 35.025 40.276 34.888L36.812 32.889C36.094 32.475 35.848 31.558 36.262 30.84C36.677 30.123 37.594 29.877 38.312 30.291L41.776 32.29C42.493 32.704 42.739 33.621 42.325 34.339C42.048 34.82 41.544 35.089 41.024 35.089Z" fill="url(#paint9_linear_1457_1118)"/>
<path d="M43.997 24.498H39.998C39.169 24.498 38.498 23.826 38.498 22.998C38.498 22.17 39.169 21.498 39.998 21.498H43.997C44.825 21.498 45.497 22.17 45.497 22.998C45.497 23.826 44.825 24.498 43.997 24.498Z" fill="url(#paint10_linear_1457_1118)"/>
<path d="M37.8121 15.84C37.2941 15.84 36.7901 15.571 36.5111 15.09C36.0971 14.372 36.3431 13.455 37.0611 13.041L40.5251 11.042C41.2441 10.627 42.1601 10.873 42.5741 11.591C42.9881 12.309 42.7421 13.226 42.0251 13.64L38.5611 15.639C38.3241 15.775 38.0661 15.84 37.8121 15.84Z" fill="url(#paint11_linear_1457_1118)"/>
<path d="M31.587 9.43599C31.332 9.43599 31.074 9.37199 30.838 9.23499C30.12 8.82099 29.874 7.90299 30.289 7.18599L32.289 3.72299C32.704 3.00599 33.62 2.75999 34.338 3.17399C35.056 3.58799 35.302 4.50599 34.887 5.22299L32.887 8.68599C32.608 9.16699 32.104 9.43599 31.587 9.43599Z" fill="url(#paint12_linear_1457_1118)"/>
</g>
<defs>
<linearGradient id="paint0_linear_1457_1118" x1="71.029" y1="-14.6063" x2="-68.4248" y2="165.615" gradientUnits="userSpaceOnUse">
<stop stop-color="white"/>
<stop offset="1" stop-color="#AEAEAE"/>
</linearGradient>
<linearGradient id="paint1_linear_1457_1118" x1="28.9109" y1="-7.17323" x2="-5.98091" y2="12.1519" gradientUnits="userSpaceOnUse">
<stop stop-color="white"/>
<stop offset="1" stop-color="#AEAEAE"/>
</linearGradient>
<linearGradient id="paint2_linear_1457_1118" x1="23.1968" y1="-3.90136" x2="-14.811" y2="34.1051" gradientUnits="userSpaceOnUse">
<stop stop-color="white"/>
<stop offset="1" stop-color="#AEAEAE"/>
</linearGradient>
<linearGradient id="paint3_linear_1457_1118" x1="18.9411" y1="5.28284" x2="-6.97628" y2="48.5783" gradientUnits="userSpaceOnUse">
<stop stop-color="white"/>
<stop offset="1" stop-color="#AEAEAE"/>
</linearGradient>
<linearGradient id="paint4_linear_1457_1118" x1="17.2943" y1="17.9258" x2="6.7534" y2="49.7113" gradientUnits="userSpaceOnUse">
<stop stop-color="white"/>
<stop offset="1" stop-color="#AEAEAE"/>
</linearGradient>
<linearGradient id="paint5_linear_1457_1118" x1="18.6933" y1="24.5342" x2="-7.21847" y2="67.8281" gradientUnits="userSpaceOnUse">
<stop stop-color="white"/>
<stop offset="1" stop-color="#AEAEAE"/>
</linearGradient>
<linearGradient id="paint6_linear_1457_1118" x1="22.7597" y1="29.4381" x2="-15.2527" y2="67.4269" gradientUnits="userSpaceOnUse">
<stop stop-color="white"/>
<stop offset="1" stop-color="#AEAEAE"/>
</linearGradient>
<linearGradient id="paint7_linear_1457_1118" x1="28.4118" y1="31.3268" x2="-6.47759" y2="50.6534" gradientUnits="userSpaceOnUse">
<stop stop-color="white"/>
<stop offset="1" stop-color="#AEAEAE"/>
</linearGradient>
<linearGradient id="paint8_linear_1457_1118" x1="42.0138" y1="29.6881" x2="4.00734" y2="67.6946" gradientUnits="userSpaceOnUse">
<stop stop-color="white"/>
<stop offset="1" stop-color="#AEAEAE"/>
</linearGradient>
<linearGradient id="paint9_linear_1457_1118" x1="52.0336" y1="24.9672" x2="26.1307" y2="68.2593" gradientUnits="userSpaceOnUse">
<stop stop-color="white"/>
<stop offset="1" stop-color="#AEAEAE"/>
</linearGradient>
<linearGradient id="paint10_linear_1457_1118" x1="55.7899" y1="18.4237" x2="45.2478" y2="50.2084" gradientUnits="userSpaceOnUse">
<stop stop-color="white"/>
<stop offset="1" stop-color="#AEAEAE"/>
</linearGradient>
<linearGradient id="paint11_linear_1457_1118" x1="52.2826" y1="5.71691" x2="26.3747" y2="49.0117" gradientUnits="userSpaceOnUse">
<stop stop-color="white"/>
<stop offset="1" stop-color="#AEAEAE"/>
</linearGradient>
<linearGradient id="paint12_linear_1457_1118" x1="42.4438" y1="-3.65001" x2="4.43989" y2="34.3565" gradientUnits="userSpaceOnUse">
<stop stop-color="white"/>
<stop offset="1" stop-color="#AEAEAE"/>
</linearGradient>
<clipPath id="clip0_1457_1118">
<rect width="45.497" height="45.498" fill="white"/>
</clipPath>
</defs>
</svg>
