<svg width="58" height="52" viewBox="0 0 58 52" fill="none" xmlns="http://www.w3.org/2000/svg">
<g clip-path="url(#clip0_1457_1106)">
<path d="M30.969 5.66202C31.067 6.41802 31.711 6.96802 32.453 6.96802C32.517 6.96802 32.584 6.96402 32.649 6.95602C33.47 6.84902 34.049 6.09702 33.943 5.27402L33.425 1.30802C33.319 0.487017 32.569 -0.0989829 31.744 0.0140171C30.923 0.121017 30.344 0.873017 30.45 1.69602L30.969 5.66202Z" fill="url(#paint0_linear_1457_1106)"/>
<path d="M22.96 9.66498C23.255 10.051 23.701 10.253 24.152 10.253C24.47 10.253 24.79 10.153 25.062 9.94398C25.72 9.44098 25.846 8.49998 25.342 7.84198L22.912 4.66398C22.409 4.00698 21.468 3.88298 20.809 4.38498C20.151 4.88798 20.025 5.82898 20.529 6.48698L22.96 9.66498Z" fill="url(#paint1_linear_1457_1106)"/>
<path d="M54.533 29.611L50.84 28.076C50.076 27.759 49.197 28.121 48.879 28.886C48.561 29.651 48.924 30.529 49.689 30.847L53.381 32.382C53.569 32.46 53.765 32.497 53.957 32.497C54.545 32.497 55.103 32.149 55.342 31.572C55.66 30.807 55.298 29.929 54.533 29.611Z" fill="url(#paint2_linear_1457_1106)"/>
<path d="M57.0229 19.915C56.9169 19.095 56.1599 18.515 55.3409 18.622L51.3759 19.14C50.5539 19.247 49.9759 20 50.0829 20.822C50.1809 21.578 50.8249 22.129 51.5669 22.129C51.6319 22.129 51.6979 22.125 51.7639 22.115L55.7289 21.597C56.5529 21.49 57.1309 20.737 57.0229 19.915Z" fill="url(#paint3_linear_1457_1106)"/>
<path d="M52.372 11.084C53.03 10.58 53.156 9.63902 52.652 8.98002C52.148 8.32302 51.208 8.19702 50.549 8.70102L47.372 11.131C46.714 11.634 46.589 12.575 47.092 13.233C47.388 13.62 47.833 13.823 48.284 13.823C48.602 13.823 48.923 13.721 49.194 13.514L52.372 11.084Z" fill="url(#paint4_linear_1457_1106)"/>
<path d="M40.711 8.16101C40.899 8.23901 41.094 8.27601 41.287 8.27601C41.874 8.27601 42.432 7.92801 42.672 7.35201L44.209 3.65901C44.527 2.89501 44.165 2.01601 43.4 1.69801C42.634 1.38001 41.756 1.74101 41.439 2.50701L39.902 6.20001C39.584 6.96301 39.945 7.84201 40.711 8.16101Z" fill="url(#paint5_linear_1457_1106)"/>
<path d="M46.582 21.026C45.79 14.942 40.573 10.354 34.447 10.354C33.918 10.354 33.381 10.389 32.853 10.458C29.908 10.842 27.356 12.261 25.48 14.286C24.153 13.798 22.725 13.528 21.24 13.528C15.362 13.528 10.372 17.79 9.258 23.385C4.131 23.514 0 27.725 0 32.883C0 37.041 2.781 40.781 6.713 41.963C7.558 42.241 8.432 42.383 9.313 42.383H34.569C35.534 42.383 36.492 42.21 37.417 41.869C41.886 40.439 44.885 36.332 44.885 31.633C44.885 30.85 44.796 30.088 44.636 29.352C46.21 26.982 46.977 24.063 46.582 21.026ZM36.164 38.071L36.062 38.106C35.572 38.29 35.07 38.383 34.568 38.383H9.312C8.858 38.383 8.405 38.309 7.915 38.148C5.61 37.456 4 35.291 4 32.883C4 29.85 6.467 27.383 9.5 27.383C9.875 27.383 10.254 27.421 10.625 27.498L12.979 27.982L13.028 25.579C13.118 21.139 16.802 17.527 21.24 17.527C25.068 17.527 28.353 20.132 29.231 23.863L29.744 26.045L31.853 25.287C32.601 25.018 33.369 24.883 34.133 24.883C37.855 24.883 40.883 27.91 40.883 31.633C40.884 34.595 38.987 37.182 36.164 38.071ZM34.134 20.883C33.587 20.883 33.041 20.926 32.498 21.01C31.733 19.175 30.544 17.597 29.069 16.364C30.246 15.345 31.714 14.64 33.369 14.425C33.726 14.378 34.09 14.355 34.447 14.355C38.57 14.355 42.082 17.446 42.615 21.543C42.76 22.654 42.667 23.74 42.388 24.759C40.415 22.392 37.448 20.883 34.134 20.883Z" fill="url(#paint6_linear_1457_1106)"/>
<path d="M13.473 44.996C12.756 44.582 11.838 44.827 11.424 45.545L9.42503 49.009C9.01103 49.727 9.25703 50.644 9.97403 51.058C10.21 51.195 10.468 51.259 10.723 51.259C11.242 51.259 11.746 50.99 12.024 50.509L14.023 47.045C14.436 46.327 14.19 45.41 13.473 44.996Z" fill="url(#paint7_linear_1457_1106)"/>
<path d="M22.973 44.996C22.255 44.582 21.338 44.827 20.924 45.545L18.925 49.009C18.511 49.727 18.757 50.644 19.474 51.058C19.71 51.195 19.968 51.259 20.223 51.259C20.742 51.259 21.246 50.99 21.524 50.509L23.523 47.045C23.936 46.327 23.69 45.41 22.973 44.996Z" fill="url(#paint8_linear_1457_1106)"/>
<path d="M32.4731 44.996C31.7561 44.582 30.8381 44.827 30.4241 45.545L28.4241 49.009C28.0101 49.727 28.2561 50.644 28.9731 51.058C29.2091 51.195 29.4671 51.259 29.7221 51.259C30.2401 51.259 30.7451 50.99 31.0231 50.509L33.0211 47.045C33.4361 46.327 33.1891 45.41 32.4731 44.996Z" fill="url(#paint9_linear_1457_1106)"/>
</g>
<defs>
<linearGradient id="paint0_linear_1457_1106" x1="39.1292" y1="-7.14033" x2="1.62688" y2="17.3293" gradientUnits="userSpaceOnUse">
<stop stop-color="white"/>
<stop offset="1" stop-color="#AEAEAE"/>
</linearGradient>
<linearGradient id="paint1_linear_1457_1106" x1="33.6378" y1="-2.25226" x2="-2.3846" y2="38.6836" gradientUnits="userSpaceOnUse">
<stop stop-color="white"/>
<stop offset="1" stop-color="#AEAEAE"/>
</linearGradient>
<linearGradient id="paint2_linear_1457_1106" x1="65.301" y1="23.3132" x2="43.3626" y2="65.1525" gradientUnits="userSpaceOnUse">
<stop stop-color="white"/>
<stop offset="1" stop-color="#AEAEAE"/>
</linearGradient>
<linearGradient id="paint3_linear_1457_1106" x1="67.2798" y1="15.0024" x2="53.2415" y2="50.9069" gradientUnits="userSpaceOnUse">
<stop stop-color="white"/>
<stop offset="1" stop-color="#AEAEAE"/>
</linearGradient>
<linearGradient id="paint4_linear_1457_1106" x1="62.0458" y1="2.82651" x2="32.3417" y2="46.4905" gradientUnits="userSpaceOnUse">
<stop stop-color="white"/>
<stop offset="1" stop-color="#AEAEAE"/>
</linearGradient>
<linearGradient id="paint5_linear_1457_1106" x1="50.9978" y1="-5.27661" x2="11.9803" y2="28.9081" gradientUnits="userSpaceOnUse">
<stop stop-color="white"/>
<stop offset="1" stop-color="#AEAEAE"/>
</linearGradient>
<linearGradient id="paint6_linear_1457_1106" x1="115.339" y1="-22.4676" x2="-40.6622" y2="271.388" gradientUnits="userSpaceOnUse">
<stop stop-color="white"/>
<stop offset="1" stop-color="#AEAEAE"/>
</linearGradient>
<linearGradient id="paint7_linear_1457_1106" x1="21.5755" y1="38.1705" x2="-16.4356" y2="76.1616" gradientUnits="userSpaceOnUse">
<stop stop-color="white"/>
<stop offset="1" stop-color="#AEAEAE"/>
</linearGradient>
<linearGradient id="paint8_linear_1457_1106" x1="31.0755" y1="38.1705" x2="-6.93555" y2="76.1617" gradientUnits="userSpaceOnUse">
<stop stop-color="white"/>
<stop offset="1" stop-color="#AEAEAE"/>
</linearGradient>
<linearGradient id="paint9_linear_1457_1106" x1="40.575" y1="38.1705" x2="2.56391" y2="76.163" gradientUnits="userSpaceOnUse">
<stop stop-color="white"/>
<stop offset="1" stop-color="#AEAEAE"/>
</linearGradient>
<clipPath id="clip0_1457_1106">
<rect width="57.036" height="51.258" fill="white"/>
</clipPath>
</defs>
</svg>
