<svg width="59" height="36" viewBox="0 0 59 36" fill="none" xmlns="http://www.w3.org/2000/svg">
<g clip-path="url(#clip0_1457_1104)">
<path d="M50.395 5.557C49.982 5.557 49.57 5.589 49.16 5.654C47.744 2.261 44.435 0 40.655 0C36.215 0 32.445 3.22 31.603 7.447C30.264 7.481 29.02 7.888 27.959 8.562C26.021 7.287 23.706 6.556 21.239 6.556C15.361 6.556 10.372 10.818 9.258 16.414C4.132 16.544 0 20.755 0 25.912C0 30.071 2.781 33.811 6.713 34.992C7.558 35.27 8.433 35.412 9.313 35.412H34.569C35.535 35.412 36.492 35.239 37.417 34.899C41.887 33.469 44.885 29.362 44.885 24.662C44.885 23.669 44.739 22.711 44.486 21.798H50.725C51.468 21.798 52.204 21.662 52.836 21.423C56.233 20.354 58.517 17.241 58.517 13.678C58.516 9.2 54.872 5.557 50.395 5.557ZM36.164 31.1L36.062 31.136C35.572 31.32 35.07 31.412 34.568 31.412H9.312C8.859 31.412 8.406 31.339 7.915 31.178C5.61 30.484 4 28.319 4 25.912C4 22.88 6.468 20.412 9.5 20.412C9.875 20.412 10.254 20.451 10.626 20.527L12.98 21.011L13.029 18.609C13.119 14.169 16.803 10.556 21.241 10.556C25.069 10.556 28.354 13.161 29.232 16.892L29.745 19.074L31.854 18.317C32.602 18.047 33.37 17.912 34.134 17.912C37.857 17.912 40.884 20.94 40.884 24.662C40.884 27.624 38.987 30.212 36.164 31.1ZM51.851 18.567C51.482 18.706 51.103 18.776 50.724 18.776H43.12C41.196 15.85 37.89 13.912 34.135 13.912C33.588 13.912 33.042 13.955 32.5 14.04C31.987 12.81 31.28 11.697 30.43 10.723C30.857 10.571 31.308 10.467 31.787 10.467C32.072 10.467 32.357 10.496 32.636 10.554L34.415 10.922L34.452 9.106C34.52 5.752 37.304 3.022 40.656 3.022C43.547 3.022 46.029 4.991 46.692 7.808L47.08 9.456L48.674 8.884C49.238 8.681 49.818 8.578 50.396 8.578C53.208 8.578 55.496 10.866 55.496 13.678C55.494 15.915 54.062 17.869 51.851 18.567Z" fill="url(#paint0_linear_1457_1104)"/>
</g>
<defs>
<linearGradient id="paint0_linear_1457_1104" x1="144.573" y1="-36.2883" x2="-15.3697" y2="305.275" gradientUnits="userSpaceOnUse">
<stop stop-color="white"/>
<stop offset="1" stop-color="#AEAEAE"/>
</linearGradient>
<clipPath id="clip0_1457_1104">
<rect width="58.516" height="35.412" fill="white"/>
</clipPath>
</defs>
</svg>
